<svg width="53" height="52" viewBox="0 0 53 52" fill="none" xmlns="http://www.w3.org/2000/svg">
<rect y="0.410156" width="52.06" height="51.19" rx="6" fill="#AFB0B4"/>
<path d="M41.125 33.5625C40.3092 33.5625 39.5116 33.3206 38.8333 32.8673C38.1549 32.4141 37.6262 31.7698 37.314 31.0161C37.0018 30.2623 36.9201 29.4329 37.0793 28.6328C37.2384 27.8326 37.6313 27.0976 38.2082 26.5207C38.7851 25.9438 39.5201 25.5509 40.3203 25.3918C41.1204 25.2326 41.9498 25.3143 42.7036 25.6265C43.4573 25.9387 44.1016 26.4674 44.5548 27.1458C45.0081 27.8241 45.25 28.6217 45.25 29.4375C45.25 30.5315 44.8154 31.5807 44.0418 32.3543C43.2682 33.1279 42.219 33.5625 41.125 33.5625ZM41.125 26.6875C40.5811 26.6875 40.0494 26.8488 39.5972 27.151C39.1449 27.4531 38.7925 27.8826 38.5843 28.3851C38.3762 28.8876 38.3217 29.4406 38.4278 29.974C38.534 30.5074 38.7959 30.9975 39.1805 31.382C39.5651 31.7666 40.0551 32.0286 40.5885 32.1347C41.122 32.2408 41.6749 32.1863 42.1774 31.9782C42.6799 31.77 43.1094 31.4176 43.4115 30.9653C43.7137 30.5131 43.875 29.9814 43.875 29.4375C43.875 28.7082 43.5853 28.0087 43.0695 27.493C42.5538 26.9772 41.8543 26.6875 41.125 26.6875Z" fill="#DFE1E7"/>
<path d="M42.1562 30.125H40.0938C39.9114 30.125 39.7365 30.0526 39.6076 29.9236C39.4787 29.7947 39.4062 29.6198 39.4062 29.4375C39.4062 29.2552 39.4787 29.0803 39.6076 28.9514C39.7365 28.8224 39.9114 28.75 40.0938 28.75H42.1562C42.3386 28.75 42.5135 28.8224 42.6424 28.9514C42.7713 29.0803 42.8438 29.2552 42.8438 29.4375C42.8438 29.6198 42.7713 29.7947 42.6424 29.9236C42.5135 30.0526 42.3386 30.125 42.1562 30.125Z" fill="#DFE1E7"/>
<path d="M41.125 31.1562C40.9427 31.1562 40.7678 31.0838 40.6389 30.9549C40.5099 30.826 40.4375 30.6511 40.4375 30.4688V28.4062C40.4375 28.2239 40.5099 28.049 40.6389 27.9201C40.7678 27.7912 40.9427 27.7188 41.125 27.7188C41.3073 27.7188 41.4822 27.7912 41.6111 27.9201C41.7401 28.049 41.8125 28.2239 41.8125 28.4062V30.4688C41.8125 30.6511 41.7401 30.826 41.6111 30.9549C41.4822 31.0838 41.3073 31.1562 41.125 31.1562Z" fill="#DFE1E7"/>
<path d="M31.1562 39.0625C29.9716 39.0607 28.836 38.5893 27.9984 37.7516C27.1607 36.914 26.6893 35.7784 26.6875 34.5938V26C26.6875 25.8177 26.7599 25.6428 26.8889 25.5139C27.0178 25.3849 27.1927 25.3125 27.375 25.3125H28.75C28.9323 25.3125 29.1072 25.3849 29.2361 25.5139C29.3651 25.6428 29.4375 25.8177 29.4375 26C29.4375 26.1823 29.3651 26.3572 29.2361 26.4861C29.1072 26.6151 28.9323 26.6875 28.75 26.6875H28.0625V34.5938C28.0625 35.4143 28.3884 36.2012 28.9686 36.7814C29.5488 37.3616 30.3357 37.6875 31.1562 37.6875C31.9768 37.6875 32.7637 37.3616 33.3439 36.7814C33.9241 36.2012 34.25 35.4143 34.25 34.5938V26.6875H33.5625C33.3802 26.6875 33.2053 26.6151 33.0764 26.4861C32.9474 26.3572 32.875 26.1823 32.875 26C32.875 25.8177 32.9474 25.6428 33.0764 25.5139C33.2053 25.3849 33.3802 25.3125 33.5625 25.3125H34.9375C35.1198 25.3125 35.2947 25.3849 35.4236 25.5139C35.5526 25.6428 35.625 25.8177 35.625 26V34.5938C35.6232 35.7784 35.1518 36.914 34.3141 37.7516C33.4765 38.5893 32.3409 39.0607 31.1562 39.0625Z" fill="#DFE1E7"/>
<path d="M36.1406 45.25C34.6369 45.2482 33.1953 44.65 32.132 43.5867C31.0687 42.5234 30.4706 41.0818 30.4688 39.5781V38.375C30.4688 38.1927 30.5412 38.0178 30.6701 37.8889C30.799 37.7599 30.9739 37.6875 31.1562 37.6875C31.3386 37.6875 31.5135 37.7599 31.6424 37.8889C31.7713 38.0178 31.8438 38.1927 31.8438 38.375V39.5781C31.8438 40.7177 32.2965 41.8107 33.1023 42.6165C33.9081 43.4223 35.001 43.875 36.1406 43.875C37.2802 43.875 38.3732 43.4223 39.179 42.6165C39.9848 41.8107 40.4375 40.7177 40.4375 39.5781V32.875C40.4375 32.6927 40.5099 32.5178 40.6389 32.3889C40.7678 32.2599 40.9427 32.1875 41.125 32.1875C41.3073 32.1875 41.4822 32.2599 41.6111 32.3889C41.7401 32.5178 41.8125 32.6927 41.8125 32.875V39.5781C41.8107 41.0818 41.2125 42.5234 40.1492 43.5867C39.0859 44.65 37.6443 45.2482 36.1406 45.25Z" fill="#DFE1E7"/>
<path d="M41.1251 17.4751C41.0634 17.4818 41.0012 17.4818 40.9395 17.4751L38.9526 16.932C38.7766 16.8837 38.6271 16.7674 38.5368 16.6089C38.4466 16.4503 38.423 16.2623 38.4713 16.0864C38.5197 15.9104 38.6359 15.7609 38.7945 15.6706C38.9531 15.5804 39.141 15.5568 39.317 15.6051L41.3038 16.1483C41.4862 16.172 41.6516 16.2671 41.7638 16.4128C41.876 16.5585 41.9257 16.7428 41.902 16.9251C41.8783 17.1075 41.7831 17.2729 41.6374 17.3851C41.4917 17.4973 41.3074 17.547 41.1251 17.5233V17.4751Z" fill="white"/>
<path d="M39.8185 18.1967C39.7593 18.2062 39.6989 18.2062 39.6397 18.1967C39.5526 18.1728 39.471 18.132 39.3996 18.0766C39.3282 18.0212 39.2685 17.9522 39.2238 17.8737C39.1791 17.7951 39.1503 17.7086 39.1391 17.6189C39.1279 17.5292 39.1345 17.4382 39.1585 17.3511L39.7016 15.3642C39.7499 15.1883 39.8661 15.0387 40.0247 14.9485C40.1833 14.8582 40.3713 14.8346 40.5472 14.883C40.7232 14.9313 40.8727 15.0475 40.963 15.2061C41.0532 15.3647 41.0768 15.5526 41.0285 15.7286L40.4853 17.7155C40.4409 17.8568 40.352 17.9801 40.2318 18.0668C40.1116 18.1535 39.9666 18.1991 39.8185 18.1967Z" fill="white"/>
<path d="M18.9736 41.8741C18.3051 41.8738 17.6511 41.6785 17.0918 41.3122C16.5326 40.9458 16.0923 40.4244 15.8249 39.8116L7.13486 20.3829C6.76374 19.5513 6.73773 18.6065 7.06255 17.7558C7.38737 16.9051 8.03647 16.218 8.86736 15.8454L22.7342 9.65788C22.8867 9.62516 23.0458 9.64526 23.1854 9.7149C23.325 9.78453 23.4367 9.89956 23.5023 10.0411C23.5679 10.1826 23.5833 10.3422 23.5462 10.4937C23.5091 10.6452 23.4216 10.7796 23.298 10.8748L9.43111 17.0623C9.18036 17.1723 8.95403 17.3312 8.76535 17.5297C8.57666 17.7282 8.42938 17.9622 8.33211 18.2182C8.23483 18.4742 8.18951 18.747 8.19878 19.0207C8.20805 19.2943 8.27173 19.5634 8.38611 19.8123L17.0624 39.2823C17.1724 39.533 17.3313 39.7593 17.5298 39.948C17.7283 40.1367 17.9623 40.284 18.2183 40.3813C18.4743 40.4785 18.7471 40.5239 19.0208 40.5146C19.2944 40.5053 19.5635 40.4416 19.8124 40.3273L25.5599 37.7629C25.7235 37.701 25.9047 37.7038 26.0663 37.7708C26.228 37.8378 26.358 37.9639 26.4299 38.1235C26.5018 38.2831 26.5101 38.464 26.4532 38.6295C26.3963 38.795 26.2784 38.9325 26.1236 39.0141L20.3761 41.5785C19.9354 41.7769 19.4569 41.8778 18.9736 41.8741Z" fill="#F0F0F0"/>
<path d="M15.5084 19.5924C15.3742 19.5928 15.2428 19.554 15.1304 19.4807C15.0181 19.4074 14.9296 19.3028 14.8759 19.1799C14.8393 19.0973 14.8193 19.0082 14.8171 18.9179C14.8149 18.8276 14.8305 18.7377 14.8631 18.6534C14.8957 18.5691 14.9445 18.4921 15.0069 18.4267C15.0692 18.3613 15.1439 18.3089 15.2265 18.2724L20.8709 15.7492C20.9535 15.7122 21.0426 15.6918 21.1331 15.6892C21.2236 15.6867 21.3137 15.7019 21.3983 15.7342C21.4829 15.7664 21.5603 15.815 21.6261 15.8771C21.6919 15.9393 21.7448 16.0138 21.7818 16.0964C21.8189 16.179 21.8392 16.2681 21.8418 16.3586C21.8444 16.4491 21.8291 16.5392 21.7969 16.6238C21.7647 16.7084 21.7161 16.7858 21.6539 16.8516C21.5918 16.9174 21.5173 16.9703 21.4346 17.0074L15.7834 19.5305C15.697 19.5699 15.6034 19.5909 15.5084 19.5924Z" fill="white"/>
<path d="M15.3022 24.1989C15.1436 24.203 14.9885 24.1523 14.8631 24.0551C14.7378 23.958 14.6498 23.8205 14.6142 23.666C14.5786 23.5114 14.5975 23.3493 14.6678 23.2071C14.738 23.0649 14.8553 22.9514 14.9997 22.8858L19.6609 20.8233C19.8246 20.7614 20.0057 20.7642 20.1674 20.8312C20.329 20.8982 20.4591 21.0243 20.531 21.1839C20.6028 21.3435 20.6112 21.5244 20.5543 21.6899C20.4974 21.8554 20.3795 21.9929 20.2247 22.0745L15.5634 24.137C15.4812 24.1746 15.3925 24.1956 15.3022 24.1989Z" fill="white"/>
<path d="M16.9866 27.9592C16.8299 27.9584 16.6781 27.9042 16.5564 27.8054C16.4347 27.7066 16.3505 27.5692 16.3176 27.416C16.2847 27.2627 16.3051 27.1028 16.3755 26.9628C16.4459 26.8228 16.5621 26.711 16.7047 26.646L18.2791 25.9585C18.4428 25.8966 18.6239 25.8994 18.7856 25.9665C18.9472 26.0335 19.0773 26.1596 19.1491 26.3192C19.221 26.4787 19.2294 26.6597 19.1725 26.8252C19.1155 26.9906 18.9977 27.1282 18.8428 27.2098L17.2685 27.8973C17.1799 27.9376 17.0839 27.9587 16.9866 27.9592Z" fill="white"/>
<path d="M24.625 35.4668C24.5658 35.4772 24.5053 35.4772 24.4462 35.4668L19.3587 34.0918C18.4804 33.8521 17.733 33.2737 17.2806 32.4836C16.8282 31.6935 16.7077 30.7562 16.9456 29.8774L22.5625 9.27304C22.6811 8.83737 22.8844 8.42935 23.1608 8.07227C23.4372 7.7152 23.7812 7.41607 24.1732 7.19198C24.5652 6.96789 24.9975 6.82322 25.4454 6.76625C25.8933 6.70927 26.3481 6.7411 26.7837 6.85991L42.7131 11.2187C43.1462 11.335 43.5517 11.5365 43.9059 11.8116C44.26 12.0867 44.5557 12.4297 44.7756 12.8205C45.0007 13.2125 45.1464 13.645 45.2042 14.0932C45.262 14.5415 45.2308 14.9968 45.1125 15.433L42.9056 23.5318C42.8443 23.6903 42.7265 23.8206 42.5749 23.8974C42.4233 23.9742 42.2486 23.9921 42.0845 23.9477C41.9205 23.9032 41.7787 23.7996 41.6866 23.6568C41.5944 23.514 41.5584 23.3421 41.5856 23.1743L43.8062 15.0755C43.8776 14.814 43.8968 14.5409 43.8626 14.2719C43.8284 14.003 43.7415 13.7434 43.6068 13.508C43.4735 13.2719 43.294 13.0649 43.0791 12.8996C42.8641 12.7342 42.6181 12.6138 42.3556 12.5455L26.4468 8.17991C25.9209 8.04332 25.3623 8.11978 24.8925 8.39269C24.4226 8.6656 24.0794 9.11291 23.9375 9.63741L18.2793 30.1868C18.2074 30.4482 18.1876 30.7212 18.2212 30.9902C18.2549 31.2592 18.3412 31.5189 18.4753 31.7545C18.6094 31.9902 18.7886 32.197 19.0027 32.3633C19.2168 32.5296 19.4616 32.6521 19.7231 32.7237L24.8106 34.0987C24.8989 34.1203 24.982 34.1593 25.0551 34.2133C25.1282 34.2673 25.1899 34.3353 25.2365 34.4133C25.2832 34.4913 25.314 34.5778 25.327 34.6678C25.34 34.7577 25.3351 34.8494 25.3125 34.9374C25.2762 35.0912 25.188 35.2278 25.0628 35.3243C24.9376 35.4207 24.7829 35.471 24.625 35.4668Z" fill="#F0F0F0"/>
<path d="M36.6288 15.935C36.5671 15.9417 36.5048 15.9417 36.4431 15.935L30.4756 14.3125C30.3885 14.2886 30.3069 14.2478 30.2355 14.1923C30.1642 14.1369 30.1044 14.068 30.0597 13.9894C30.015 13.9109 29.9862 13.8243 29.975 13.7346C29.9638 13.645 29.9704 13.554 29.9944 13.4668C30.0132 13.3783 30.0493 13.2943 30.1006 13.2197C30.1519 13.1451 30.2175 13.0814 30.2935 13.0322C30.3695 12.983 30.4545 12.9493 30.5436 12.933C30.6326 12.9168 30.724 12.9183 30.8125 12.9375L36.78 14.5737C36.8703 14.5854 36.9574 14.6149 37.0363 14.6602C37.1152 14.7056 37.1844 14.7661 37.24 14.8383C37.2955 14.9104 37.3363 14.9928 37.36 15.0807C37.3837 15.1686 37.3899 15.2603 37.3781 15.3506C37.3664 15.4409 37.337 15.528 37.2916 15.6069C37.2462 15.6858 37.1857 15.755 37.1136 15.8105C37.0414 15.8661 36.9591 15.9069 36.8712 15.9306C36.7833 15.9543 36.6916 15.9604 36.6013 15.9487L36.6288 15.935Z" fill="white"/>
<path d="M37.5293 20.4588C37.4676 20.4656 37.4054 20.4656 37.3437 20.4588L27.375 17.7501C27.1926 17.699 27.038 17.5776 26.9452 17.4126C26.8524 17.2476 26.8289 17.0524 26.88 16.8701C26.931 16.6877 27.0524 16.5332 27.2174 16.4403C27.3825 16.3475 27.5776 16.324 27.76 16.3751L37.6875 19.1251C37.8698 19.1488 38.0352 19.2439 38.1474 19.3896C38.2596 19.5353 38.3093 19.7196 38.2856 19.902C38.2619 20.0843 38.1667 20.2497 38.021 20.3619C37.8753 20.4741 37.691 20.5238 37.5087 20.5001L37.5293 20.4588Z" fill="white"/>
<path d="M34.6003 23.9374C34.5412 23.9478 34.4807 23.9478 34.4216 23.9374L26.3091 21.7168C26.2206 21.692 26.1379 21.6499 26.0656 21.5931C25.9934 21.5364 25.933 21.4659 25.888 21.3858C25.843 21.3056 25.8142 21.2174 25.8033 21.1262C25.7924 21.035 25.7995 20.9425 25.8244 20.854C25.8492 20.7655 25.8912 20.6828 25.948 20.6105C26.0048 20.5383 26.0753 20.4779 26.1554 20.4329C26.2355 20.3879 26.3237 20.3591 26.415 20.3482C26.5062 20.3373 26.5987 20.3445 26.6872 20.3693L34.7791 22.5624C34.9535 22.6107 35.102 22.7258 35.1921 22.8829C35.2822 23.0399 35.3067 23.2262 35.2603 23.4012C35.2264 23.5516 35.1429 23.6863 35.0232 23.7836C34.9035 23.8808 34.7545 23.935 34.6003 23.9374Z" fill="white"/>
</svg>
