<svg width="53" height="52" viewBox="0 0 53 52" fill="none" xmlns="http://www.w3.org/2000/svg">
<rect width="52.06" height="51.19" rx="25.595" fill="#DFE1E7"/>
<path d="M13.2837 36.6102H21.102C21.7939 36.6102 22.351 36.0531 22.351 35.3612C22.351 34.6694 21.7939 34.1122 21.102 34.1122H13.2837C12.5918 34.1122 12.0347 34.6694 12.0347 35.3612C12.0347 36.0531 12.598 36.6102 13.2837 36.6102ZM38.251 38H35.0429C37.7184 33.9102 38.4286 30.4082 37.149 27.5612C35.8449 24.6714 32.7653 23.1469 30.1388 22.3571L28.7918 24.5735C31.051 25.1551 33.8551 26.3184 34.8714 28.5959C35.9061 30.898 34.9327 34.0633 31.9939 38.0061H10.749C10.0571 38.0061 9.5 38.5633 9.5 39.2551C9.5 39.9469 10.0571 40.498 10.749 40.498H38.251C38.9429 40.498 39.5 39.9408 39.5 39.249C39.5 38.5571 38.9429 38 38.251 38ZM16.1429 27.8122L17.349 28.5837L16.2653 30.3163C15.898 30.9041 16.0755 31.6694 16.6633 32.0367C16.8714 32.1652 17.7408 32.5265 18.3837 31.6388L19.4551 29.9306C19.4551 29.9306 20.8204 30.8857 21.3102 30.8857C21.8184 30.8857 22.2041 30.5735 22.3755 30.2857L29.6429 18.3531C29.998 17.7714 29.8204 17.0184 29.251 16.651L24.7633 13.7674C24.4694 13.5714 23.5939 13.3082 23.0184 14.1714L15.751 26.1102C15.402 26.6918 15.5735 27.4449 16.1429 27.8122ZM26.4653 12.8L29.3306 14.6429C30.1327 15.1204 30.8184 14.6379 31.0571 14.2694C31.4306 13.6878 31.2592 12.9163 30.6837 12.5429L27.8184 10.7C27.2367 10.3265 26.4653 10.498 26.0918 11.0735C25.7184 11.6551 25.8898 12.4265 26.4653 12.8Z" fill="#5D5D5E"/>
</svg>
