<svg width="53" height="52" viewBox="0 0 53 52" fill="none" xmlns="http://www.w3.org/2000/svg">
<rect y="0.410156" width="52.06" height="51.19" rx="6" fill="#AFB0B4"/>
<g clip-path="url(#clip0_1189_102)">
<path d="M26.4996 19.275C28.8504 19.275 30.7628 17.3625 30.7628 15.0118C30.7628 12.6611 28.8503 10.7485 26.4996 10.7485C24.1488 10.7485 22.2363 12.6611 22.2363 15.0118C22.2363 17.3625 24.1488 19.275 26.4996 19.275Z" fill="white"/>
<path d="M19.6248 29.5438H33.3753C33.9437 29.5438 34.4044 29.083 34.4044 28.5147C34.4044 24.1562 30.8586 20.6104 26.5001 20.6104C22.1417 20.6104 18.5957 24.1562 18.5957 28.5147C18.5957 29.083 19.0565 29.5438 19.6248 29.5438Z" fill="white"/>
<path d="M30.6537 33.4939L28.4215 33.1695L27.4233 31.1469C27.0464 30.3831 25.9543 30.3836 25.5776 31.1469L24.5794 33.1695L22.3472 33.4939C21.5044 33.6164 21.1673 34.6551 21.7769 35.2492L23.392 36.8236L23.0107 39.0467C22.8667 39.8862 23.7504 40.5277 24.5039 40.1316L26.5004 39.082L28.4969 40.1316C29.2442 40.5245 30.1351 39.8925 29.9901 39.0467L29.6088 36.8236L31.2239 35.2492C31.8339 34.6546 31.496 33.6163 30.6537 33.4939Z" fill="white"/>
<path d="M19.1878 33.4938L16.9556 33.1695L15.9574 31.1469C15.5804 30.3831 14.4884 30.3835 14.1117 31.1469L13.1135 33.1695L10.8814 33.4938C10.0385 33.6163 9.70155 34.655 10.311 35.2492L11.9261 36.8236L11.5448 39.0467C11.4009 39.8862 12.2846 40.5276 13.038 40.1316L15.0345 39.0819L17.031 40.1316C17.7784 40.5245 18.6693 39.8924 18.5242 39.0467L18.1429 36.8236L19.7581 35.2492C20.368 34.6546 20.0301 33.6162 19.1878 33.4938Z" fill="white"/>
<path d="M42.1184 33.4941L39.8863 33.1697L38.8881 31.1471C38.5789 30.5205 37.8966 30.5734 37.9653 30.5734C37.5736 30.5734 37.2158 30.7958 37.0424 31.1471L36.0442 33.1697L33.812 33.4941C32.9692 33.6165 32.6322 34.6552 33.2417 35.2494L34.8569 36.8238L34.4756 39.0469C34.3316 39.8864 35.2153 40.5278 35.9688 40.1318L37.9653 39.0821L39.9618 40.1318C40.7092 40.5247 41.6001 39.8926 41.455 39.0469L41.0737 36.8238L42.6889 35.2494C43.2986 34.6549 42.9609 33.6165 42.1184 33.4941Z" fill="white"/>
</g>
<defs>
<clipPath id="clip0_1189_102">
<rect width="33" height="33" fill="white" transform="translate(10 9)"/>
</clipPath>
</defs>
</svg>
